#!OML:ASF F:\VICON\USERDATA\INSTALL\rory3\rory3.ASF
:FULLY-SPECIFIED
:DEGREES
261
root 0.921018 16.4867 35.8281 -155.541 5.36891 -178.587
lowerback -14.5631 -1.16484 -3.583
upperback -5.84785 -0.320249 0.527403
thorax 2.02197 0.215628 2.53588
lowerneck -14.4329 -1.20136 1.28361
upperneck 36.8961 2.21962 -1.5595
head 15.3873 2.15172 -0.167299
rclavicle -5.46658e-015 -9.93923e-015
rhumerus -42.5413 30.0767 -91.8065
rradius 115.762
rwrist -70.5752
rhand 8.13764 6.17115
rfingers 7.12502
rthumb 33.3579 -20.7529
lclavicle -5.46658e-015 -9.93923e-015
lhumerus -46.9897 -40.6411 96.9216
lradius 120.776
lwrist 34.7298
lhand 7.21972 11.2343
lfingers 7.12502
lthumb 32.4848 38.3418
rfemur -40.2352 -12.7909 25.4034
rtibia 69.0828
rfoot -18.1653 -23.7513
rtoes 12.6032
lfemur -42.5503 -2.93042 -28.5559
ltibia 46.2394
lfoot -49.4869 22.544
ltoes 13.8185
262
root 0.922411 16.4766 35.8182 -155.608 5.41636 -178.665
lowerback -14.4118 -1.18821 -3.72067
upperback -5.61587 -0.381446 0.590122
thorax 2.18957 0.161278 2.66993
lowerneck -14.723 -1.07444 1.33085
upperneck 36.399 2.25845 -1.73618
head 15.2172 2.08908 -0.259925
rclavicle 6.80837e-015 1.55052e-014
rhumerus -41.2377 29.7212 -91.3134
rradius 116.485
rwrist -72.1075
rhand 7.62385 6.47917
rfingers 7.12502
rthumb 32.8693 -20.5485
lclavicle 6.80837e-015 1.55052e-014
lhumerus -45.815 -41.2657 96.8422
lradius 121.591
lwrist 35.448
lhand 6.50156 10.3387
lfingers 7.12502
lthumb 31.8011 37.5843
rfemur -41.3258 -12.001 24.9275
rtibia 68.8652
rfoot -19.914 -24.8376
rtoes 13.1726
lfemur -42.5126 -3.12701 -28.5908
ltibia 46.4561
lfoot -49.9425 22.1761
ltoes 14.5496
263
root 0.924526 16.4772 35.8071 -155.682 5.33343 -178.739
lowerback -14.1285 -1.28922 -3.8165
upperback -5.39306 -0.55999 0.687655
thorax 2.28569 0.0488427 2.79782
lowerneck -15.0815 -0.878998 1.3952
upperneck 35.8555 2.41203 -2.00395
head 15.0487 2.05883 -0.373694
rclavicle -3.37934e-015 1.59028e-015
rhumerus -40.0754 29.3627 -90.9072
rradius 117.059
rwrist -73.3325
rhand 7.42944 6.7316
rfingers 7.12502
rthumb 32.6844 -20.3347
lclavicle -3.37934e-015 1.59028e-015
lhumerus -44.4309 -41.9341 96.6883
lradius 122.029
lwrist 35.9377
lhand 5.88846 9.38526
lfingers 7.12502
lthumb 31.217 36.7451
rfemur -42.3639 -11.3272 24.4637
rtibia 68.4517
rfoot -20.2635 -25.8977
rtoes 16.1534
lfemur -42.4261 -3.474 -28.5194
ltibia 46.6083
lfoot -50.5389 21.7206
ltoes 15.4391
264
root 0.930293 16.4741 35.7955 -155.74 5.14686 -178.638
lowerback -13.6418 -1.37209 -3.73418
upperback -5.29675 -0.736628 0.838617
thorax 2.13902 -0.0512667 2.88232
lowerneck -15.8954 -1.08699 1.02741
upperneck 35.9536 2.03019 -1.83258
head 15.2727 1.82645 -0.304589
rclavicle -5.2181e-016 6.36111e-015
rhumerus -39.3478 28.9491 -90.688
rradius 117.425
rwrist -74.0331
rhand 7.50669 6.99567
rfingers 7.12502
rthumb 32.7579 -20.0553
lclavicle -5.2181e-016 6.36111e-015
lhumerus -42.9571 -42.6014 96.4584
lradius 122.223
lwrist 36.9218
lhand 6.21611 8.9575
lfingers 7.12502
lthumb 31.5292 36.2567
rfemur -43.3592 -10.5426 24.1755
rtibia 67.8528
rfoot -20.2587 -26.9406
rtoes 13.4414
lfemur -42.3748 -3.68119 -28.2998
ltibia 46.7264
lfoot -50.9525 21.8113
ltoes 15.2616
265
root 0.938381 16.4626 35.7821 -155.784 5.04996 -178.447
lowerback -13.095 -1.39785 -3.54639
upperback -5.2878 -0.840252 0.968954
thorax 1.86096 -0.107487 2.89863
lowerneck -16.4347 -1.08458 0.869521
upperneck 35.8358 1.93517 -1.76075
head 15.3392 1.73364 -0.269079
rclavicle 1.55301e-014 -7.15625e-015
rhumerus -38.9447 28.6144 -90.7195
rradius 117.663
rwrist -74.3694
rhand 7.58362 7.47305
rfingers 7.12502
rthumb 32.831 -19.5627
lclavicle 1.55301e-014 -7.15625e-015
lhumerus -41.5987 -43.3274 96.2378
lradius 122.265
lwrist 38.3446
lhand 6.63395 8.63686
lfingers 7.12502
lthumb 31.9272 35.8574
rfemur -44.3519 -9.55416 23.8786
rtibia 67.117
rfoot -23.3832 -25.7073
rtoes 11.7088
lfemur -42.3192 -3.67666 -28.0943
ltibia 46.8243
lfoot -51.2108 21.732
ltoes 15.3202
